<svg width="24" height="24" viewBox="0 0 24 24" fill="none" xmlns="http://www.w3.org/2000/svg">
<path d="M2.76904 6C2.76904 5.73478 2.8663 5.48043 3.03941 5.29289C3.21252 5.10536 3.4473 5 3.69212 5H18.4614C18.7062 5 18.941 5.10536 19.1141 5.29289C19.2872 5.48043 19.3844 5.73478 19.3844 6C19.3844 6.26522 19.2872 6.51957 19.1141 6.70711C18.941 6.89464 18.7062 7 18.4614 7H3.69212C3.4473 7 3.21252 6.89464 3.03941 6.70711C2.8663 6.51957 2.76904 6.26522 2.76904 6ZM2.76904 12C2.76904 11.7348 2.8663 11.4804 3.03941 11.2929C3.21252 11.1054 3.4473 11 3.69212 11H18.4614C18.7062 11 18.941 11.1054 19.1141 11.2929C19.2872 11.4804 19.3844 11.7348 19.3844 12C19.3844 12.2652 19.2872 12.5196 19.1141 12.7071C18.941 12.8946 18.7062 13 18.4614 13H3.69212C3.4473 13 3.21252 12.8946 3.03941 12.7071C2.8663 12.5196 2.76904 12.2652 2.76904 12ZM3.69212 17C3.4473 17 3.21252 17.1054 3.03941 17.2929C2.8663 17.4804 2.76904 17.7348 2.76904 18C2.76904 18.2652 2.8663 18.5196 3.03941 18.7071C3.21252 18.8946 3.4473 19 3.69212 19H18.4614C18.7062 19 18.941 18.8946 19.1141 18.7071C19.2872 18.5196 19.3844 18.2652 19.3844 18C19.3844 17.7348 19.2872 17.4804 19.1141 17.2929C18.941 17.1054 18.7062 17 18.4614 17H3.69212Z" fill="#002F76"/>
</svg>
