<svg width="198" height="23" viewBox="0 0 198 23" fill="none" xmlns="http://www.w3.org/2000/svg">
<path d="M0.583452 17.5V0.045454H12.1403V3.08807H4.27379V7.24716H11.3732V10.2898H4.27379V17.5H0.583452ZM18.665 0.045454V17.5H15.0343V0.045454H18.665ZM30.4483 11.9261V4.40909H34.079V17.5H30.5932V15.1222H30.4568C30.1613 15.8892 29.6699 16.5057 28.9824 16.9716C28.3006 17.4375 27.4682 17.6705 26.4852 17.6705C25.6102 17.6705 24.8403 17.4716 24.1756 17.0739C23.5108 16.6761 22.9909 16.1108 22.6159 15.3778C22.2466 14.6449 22.0591 13.767 22.0534 12.7443V4.40909H25.6841V12.0966C25.6898 12.8693 25.8971 13.4801 26.3062 13.929C26.7153 14.3778 27.2636 14.6023 27.9511 14.6023C28.3886 14.6023 28.7977 14.5028 29.1784 14.304C29.5591 14.0994 29.8659 13.7983 30.0988 13.4006C30.3375 13.0028 30.454 12.5114 30.4483 11.9261ZM44.4261 4.40909V7.13636H36.5426V4.40909H44.4261ZM38.3324 1.27273H41.9631V13.4773C41.9631 13.8125 42.0142 14.0739 42.1165 14.2614C42.2188 14.4432 42.3608 14.571 42.5426 14.6449C42.7301 14.7187 42.946 14.7557 43.1904 14.7557C43.3608 14.7557 43.5313 14.7415 43.7017 14.7131C43.8722 14.679 44.0029 14.6534 44.0938 14.6364L44.6648 17.3381C44.483 17.3949 44.2273 17.4602 43.8977 17.5341C43.5682 17.6136 43.1676 17.6619 42.696 17.679C41.821 17.7131 41.054 17.5966 40.3949 17.3295C39.7415 17.0625 39.233 16.6477 38.8693 16.0852C38.5057 15.5227 38.3267 14.8125 38.3324 13.9545V1.27273ZM54.2343 4.40909V7.13636H46.3508V4.40909H54.2343ZM48.1405 1.27273H51.7712V13.4773C51.7712 13.8125 51.8223 14.0739 51.9246 14.2614C52.0269 14.4432 52.1689 14.571 52.3508 14.6449C52.5383 14.7187 52.7542 14.7557 52.9985 14.7557C53.1689 14.7557 53.3394 14.7415 53.5098 14.7131C53.6803 14.679 53.811 14.6534 53.9019 14.6364L54.4729 17.3381C54.2911 17.3949 54.0354 17.4602 53.7059 17.5341C53.3763 17.6136 52.9758 17.6619 52.5042 17.679C51.6292 17.7131 50.8621 17.5966 50.203 17.3295C49.5496 17.0625 49.0411 16.6477 48.6775 16.0852C48.3138 15.5227 48.1348 14.8125 48.1405 13.9545V1.27273ZM62.9046 17.7557C61.558 17.7557 60.3989 17.483 59.4273 16.9375C58.4614 16.3864 57.7171 15.608 57.1944 14.6023C56.6717 13.5909 56.4103 12.3949 56.4103 11.0142C56.4103 9.66761 56.6717 8.4858 57.1944 7.46875C57.7171 6.4517 58.4529 5.65909 59.4018 5.09091C60.3563 4.52273 61.4756 4.23864 62.7597 4.23864C63.6234 4.23864 64.4273 4.37784 65.1717 4.65625C65.9217 4.92898 66.5751 5.34091 67.1319 5.89205C67.6944 6.44318 68.1319 7.13636 68.4444 7.97159C68.7569 8.80114 68.9131 9.77273 68.9131 10.8864V11.8835H57.8592V9.63352H65.4955C65.4955 9.1108 65.3819 8.64773 65.1546 8.24432C64.9273 7.84091 64.612 7.52557 64.2086 7.2983C63.8109 7.06534 63.3478 6.94886 62.8194 6.94886C62.2683 6.94886 61.7796 7.0767 61.3535 7.33239C60.933 7.58239 60.6035 7.92045 60.3648 8.34659C60.1262 8.76705 60.0041 9.2358 59.9984 9.75284V11.892C59.9984 12.5398 60.1177 13.0994 60.3563 13.571C60.6006 14.0426 60.9444 14.4062 61.3876 14.6619C61.8308 14.9176 62.3563 15.0455 62.9643 15.0455C63.3677 15.0455 63.737 14.9886 64.0722 14.875C64.4075 14.7614 64.6944 14.5909 64.933 14.3636C65.1717 14.1364 65.3535 13.858 65.4785 13.5284L68.8364 13.75C68.666 14.5568 68.3166 15.2614 67.7881 15.8636C67.2654 16.4602 66.5893 16.9261 65.7597 17.2614C64.9359 17.5909 63.9842 17.7557 62.9046 17.7557ZM71.7625 17.5V4.40909H75.2823V6.69318H75.4187C75.6573 5.88068 76.0579 5.26705 76.6204 4.85227C77.1829 4.43182 77.8306 4.22159 78.5636 4.22159C78.7454 4.22159 78.9414 4.23295 79.1517 4.25568C79.3619 4.27841 79.5465 4.30966 79.7056 4.34943V7.57102C79.5352 7.51989 79.2994 7.47443 78.9983 7.43466C78.6971 7.39489 78.4215 7.375 78.1715 7.375C77.6375 7.375 77.1602 7.49148 76.7397 7.72443C76.325 7.9517 75.9954 8.26989 75.7511 8.67898C75.5125 9.08807 75.3931 9.55966 75.3931 10.0938V17.5H71.7625ZM84.1849 17.7216C83.6224 17.7216 83.1395 17.5227 82.7361 17.125C82.3383 16.7216 82.1395 16.2386 82.1395 15.6761C82.1395 15.1193 82.3383 14.642 82.7361 14.2443C83.1395 13.8466 83.6224 13.6477 84.1849 13.6477C84.7304 13.6477 85.2077 13.8466 85.6167 14.2443C86.0258 14.642 86.2304 15.1193 86.2304 15.6761C86.2304 16.0511 86.1338 16.3949 85.9406 16.7074C85.7531 17.0142 85.506 17.2614 85.1991 17.4489C84.8923 17.6307 84.5542 17.7216 84.1849 17.7216Z" fill="#00D5FF"/>
<path d="M89.7594 17.5V0.045454H93.4497V7.24716H100.941V0.045454H104.623V17.5H100.941V10.2898H93.4497V17.5H89.7594ZM111.81 17.7472C110.975 17.7472 110.231 17.6023 109.577 17.3125C108.924 17.017 108.407 16.5824 108.026 16.0085C107.651 15.429 107.464 14.7074 107.464 13.8438C107.464 13.1165 107.597 12.5057 107.864 12.0114C108.131 11.517 108.495 11.1193 108.955 10.8182C109.416 10.517 109.938 10.2898 110.523 10.1364C111.114 9.98295 111.734 9.875 112.381 9.8125C113.143 9.73295 113.756 9.65909 114.222 9.59091C114.688 9.51705 115.026 9.40909 115.237 9.26705C115.447 9.125 115.552 8.91477 115.552 8.63636V8.58523C115.552 8.04545 115.381 7.62784 115.041 7.33239C114.705 7.03693 114.228 6.8892 113.609 6.8892C112.955 6.8892 112.435 7.03409 112.049 7.32386C111.663 7.60795 111.407 7.96591 111.282 8.39773L107.924 8.125C108.095 7.32955 108.43 6.64205 108.93 6.0625C109.43 5.47727 110.075 5.02841 110.864 4.71591C111.66 4.39773 112.58 4.23864 113.626 4.23864C114.353 4.23864 115.049 4.32386 115.714 4.49432C116.384 4.66477 116.978 4.92898 117.495 5.28693C118.018 5.64489 118.43 6.10511 118.731 6.66761C119.032 7.22443 119.183 7.89205 119.183 8.67045V17.5H115.739V15.6847H115.637C115.427 16.0938 115.146 16.4545 114.793 16.767C114.441 17.0739 114.018 17.3153 113.523 17.4915C113.029 17.6619 112.458 17.7472 111.81 17.7472ZM112.85 15.2415C113.384 15.2415 113.856 15.1364 114.265 14.9261C114.674 14.7102 114.995 14.4205 115.228 14.0568C115.461 13.6932 115.577 13.2812 115.577 12.821V11.4318C115.464 11.5057 115.308 11.5739 115.109 11.6364C114.916 11.6932 114.697 11.7472 114.452 11.7983C114.208 11.8437 113.964 11.8864 113.72 11.9261C113.475 11.9602 113.254 11.9915 113.055 12.0199C112.629 12.0824 112.256 12.1818 111.938 12.3182C111.62 12.4545 111.373 12.6392 111.197 12.8722C111.021 13.0994 110.933 13.3835 110.933 13.7244C110.933 14.2188 111.112 14.5966 111.47 14.858C111.833 15.1136 112.293 15.2415 112.85 15.2415ZM122.479 17.5V4.40909H125.94V6.71875H126.093C126.366 5.9517 126.82 5.34659 127.457 4.90341C128.093 4.46023 128.854 4.23864 129.741 4.23864C130.638 4.23864 131.403 4.46307 132.033 4.91193C132.664 5.35511 133.084 5.95739 133.295 6.71875H133.431C133.698 5.96875 134.181 5.36932 134.88 4.92045C135.584 4.46591 136.417 4.23864 137.377 4.23864C138.599 4.23864 139.59 4.62784 140.351 5.40625C141.119 6.17898 141.502 7.27557 141.502 8.69602V17.5H137.88V9.41193C137.88 8.68466 137.687 8.1392 137.3 7.77557C136.914 7.41193 136.431 7.23011 135.851 7.23011C135.192 7.23011 134.678 7.44034 134.309 7.8608C133.94 8.27557 133.755 8.82386 133.755 9.50568V17.5H130.235V9.33523C130.235 8.69318 130.05 8.18182 129.681 7.80114C129.317 7.42045 128.837 7.23011 128.241 7.23011C127.837 7.23011 127.474 7.33239 127.15 7.53693C126.832 7.7358 126.579 8.01705 126.391 8.38068C126.204 8.73864 126.11 9.15909 126.11 9.64205V17.5H122.479ZM144.918 17.5V0.045454H148.549V6.60795H148.66C148.819 6.25568 149.049 5.89773 149.35 5.53409C149.657 5.16477 150.055 4.85795 150.543 4.61364C151.037 4.36364 151.651 4.23864 152.384 4.23864C153.339 4.23864 154.219 4.48864 155.026 4.98864C155.833 5.48295 156.478 6.23011 156.961 7.23011C157.444 8.22443 157.685 9.47159 157.685 10.9716C157.685 12.4318 157.449 13.6648 156.978 14.6705C156.512 15.6705 155.876 16.429 155.069 16.946C154.268 17.4574 153.37 17.7131 152.376 17.7131C151.671 17.7131 151.072 17.5966 150.577 17.3636C150.089 17.1307 149.688 16.8381 149.376 16.4858C149.063 16.1278 148.824 15.767 148.66 15.4034H148.498V17.5H144.918ZM148.472 10.9545C148.472 11.733 148.58 12.4119 148.796 12.9915C149.012 13.571 149.324 14.0227 149.733 14.3466C150.143 14.6648 150.64 14.8239 151.225 14.8239C151.816 14.8239 152.316 14.6619 152.725 14.3381C153.134 14.0085 153.444 13.554 153.654 12.9744C153.87 12.3892 153.978 11.7159 153.978 10.9545C153.978 10.1989 153.873 9.53409 153.662 8.96023C153.452 8.38636 153.143 7.9375 152.733 7.61364C152.324 7.28977 151.822 7.12784 151.225 7.12784C150.634 7.12784 150.134 7.28409 149.725 7.59659C149.322 7.90909 149.012 8.35227 148.796 8.92614C148.58 9.5 148.472 10.1761 148.472 10.9545ZM168.983 11.9261V4.40909H172.613V17.5H169.128V15.1222H168.991C168.696 15.8892 168.204 16.5057 167.517 16.9716C166.835 17.4375 166.003 17.6705 165.02 17.6705C164.145 17.6705 163.375 17.4716 162.71 17.0739C162.045 16.6761 161.525 16.1108 161.15 15.3778C160.781 14.6449 160.593 13.767 160.588 12.7443V4.40909H164.218V12.0966C164.224 12.8693 164.432 13.4801 164.841 13.929C165.25 14.3778 165.798 14.6023 166.485 14.6023C166.923 14.6023 167.332 14.5028 167.713 14.304C168.093 14.0994 168.4 13.7983 168.633 13.4006C168.872 13.0028 168.988 12.5114 168.983 11.9261ZM175.997 17.5V4.40909H179.517V6.69318H179.654C179.892 5.88068 180.293 5.26705 180.855 4.85227C181.418 4.43182 182.066 4.22159 182.799 4.22159C182.98 4.22159 183.176 4.23295 183.387 4.25568C183.597 4.27841 183.782 4.30966 183.941 4.34943V7.57102C183.77 7.51989 183.534 7.47443 183.233 7.43466C182.932 7.39489 182.657 7.375 182.407 7.375C181.872 7.375 181.395 7.49148 180.975 7.72443C180.56 7.9517 180.23 8.26989 179.986 8.67898C179.747 9.08807 179.628 9.55966 179.628 10.0938V17.5H175.997ZM191.586 22.6818C190.41 22.6818 189.401 22.5199 188.561 22.196C187.725 21.8778 187.061 21.4432 186.566 20.892C186.072 20.3409 185.751 19.7216 185.603 19.0341L188.961 18.5824C189.063 18.8438 189.225 19.0881 189.447 19.3153C189.669 19.5426 189.961 19.7244 190.325 19.8608C190.694 20.0028 191.143 20.0739 191.671 20.0739C192.461 20.0739 193.112 19.8807 193.623 19.4943C194.14 19.1136 194.399 18.4744 194.399 17.5767V15.1818H194.245C194.086 15.5455 193.847 15.8892 193.529 16.2131C193.211 16.5369 192.802 16.8011 192.302 17.0057C191.802 17.2102 191.205 17.3125 190.512 17.3125C189.529 17.3125 188.634 17.0852 187.828 16.6307C187.026 16.1705 186.387 15.4687 185.91 14.5256C185.438 13.5767 185.203 12.3778 185.203 10.929C185.203 9.44602 185.444 8.20739 185.927 7.21307C186.41 6.21875 187.052 5.47443 187.853 4.98011C188.66 4.4858 189.544 4.23864 190.504 4.23864C191.237 4.23864 191.85 4.36364 192.345 4.61364C192.839 4.85795 193.237 5.16477 193.538 5.53409C193.845 5.89773 194.08 6.25568 194.245 6.60795H194.382V4.40909H197.987V17.6278C197.987 18.7415 197.714 19.6733 197.169 20.4233C196.623 21.1733 195.867 21.7358 194.901 22.1108C193.941 22.4915 192.836 22.6818 191.586 22.6818ZM191.663 14.5852C192.248 14.5852 192.742 14.4403 193.146 14.1506C193.555 13.8551 193.867 13.4347 194.083 12.8892C194.305 12.3381 194.416 11.679 194.416 10.9119C194.416 10.1449 194.308 9.48011 194.092 8.91761C193.876 8.34943 193.563 7.90909 193.154 7.59659C192.745 7.28409 192.248 7.12784 191.663 7.12784C191.066 7.12784 190.563 7.28977 190.154 7.61364C189.745 7.93182 189.436 8.375 189.225 8.94318C189.015 9.51136 188.91 10.1676 188.91 10.9119C188.91 11.6676 189.015 12.321 189.225 12.8722C189.441 13.4176 189.751 13.8409 190.154 14.142C190.563 14.4375 191.066 14.5852 191.663 14.5852Z" fill="#002F76"/>
</svg>
