<svg width="17" height="17" viewBox="0 0 17 17" fill="none" xmlns="http://www.w3.org/2000/svg">
<path d="M14.3197 8.09603C14.1429 8.09603 13.9733 8.16627 13.8483 8.29129C13.7232 8.41632 13.653 8.58588 13.653 8.7627V12.7627C13.653 12.9395 13.5828 13.1091 13.4577 13.2341C13.3327 13.3591 13.1631 13.4294 12.9863 13.4294H4.98633C4.80952 13.4294 4.63995 13.3591 4.51492 13.2341C4.3899 13.1091 4.31966 12.9395 4.31966 12.7627V4.7627C4.31966 4.58588 4.3899 4.41632 4.51492 4.29129C4.63995 4.16627 4.80952 4.09603 4.98633 4.09603H8.98633C9.16314 4.09603 9.33271 4.02579 9.45773 3.90077C9.58276 3.77574 9.653 3.60617 9.653 3.42936C9.653 3.25255 9.58276 3.08298 9.45773 2.95796C9.33271 2.83293 9.16314 2.7627 8.98633 2.7627H4.98633C4.4559 2.7627 3.94719 2.97341 3.57211 3.34848C3.19704 3.72355 2.98633 4.23226 2.98633 4.7627V12.7627C2.98633 13.2931 3.19704 13.8018 3.57211 14.1769C3.94719 14.552 4.4559 14.7627 4.98633 14.7627H12.9863C13.5168 14.7627 14.0255 14.552 14.4005 14.1769C14.7756 13.8018 14.9863 13.2931 14.9863 12.7627V8.7627C14.9863 8.58588 14.9161 8.41632 14.7911 8.29129C14.666 8.16627 14.4965 8.09603 14.3197 8.09603Z" fill="#1890FF"/>
<path d="M11.6526 4.09603H12.706L8.51263 8.2827C8.45014 8.34467 8.40055 8.4184 8.3667 8.49964C8.33286 8.58088 8.31543 8.66802 8.31543 8.75603C8.31543 8.84404 8.33286 8.93117 8.3667 9.01241C8.40055 9.09365 8.45014 9.16739 8.51263 9.22936C8.5746 9.29185 8.64834 9.34144 8.72958 9.37529C8.81082 9.40914 8.89795 9.42656 8.98596 9.42656C9.07397 9.42656 9.16111 9.40914 9.24235 9.37529C9.32359 9.34144 9.39732 9.29185 9.4593 9.22936L13.6526 5.0427V6.09603C13.6526 6.27284 13.7229 6.44241 13.8479 6.56743C13.9729 6.69246 14.1425 6.7627 14.3193 6.7627C14.4961 6.7627 14.6657 6.69246 14.7907 6.56743C14.9157 6.44241 14.986 6.27284 14.986 6.09603V3.42936C14.986 3.25255 14.9157 3.08298 14.7907 2.95796C14.6657 2.83293 14.4961 2.7627 14.3193 2.7627H11.6526C11.4758 2.7627 11.3062 2.83293 11.1812 2.95796C11.0562 3.08298 10.986 3.25255 10.986 3.42936C10.986 3.60617 11.0562 3.77574 11.1812 3.90077C11.3062 4.02579 11.4758 4.09603 11.6526 4.09603Z" fill="#1890FF"/>
</svg>
