<svg width="31" height="31" viewBox="0 0 31 31" fill="none" xmlns="http://www.w3.org/2000/svg">
<path d="M15.0645 2.7627C12.4123 2.7627 9.86875 3.81626 7.99339 5.69163C6.11802 7.56699 5.06445 10.1105 5.06445 12.7627C5.06445 19.5127 13.877 27.1377 14.252 27.4627C14.4784 27.6564 14.7665 27.7628 15.0645 27.7628C15.3624 27.7628 15.6505 27.6564 15.877 27.4627C16.3145 27.1377 25.0645 19.5127 25.0645 12.7627C25.0645 10.1105 24.0109 7.56699 22.1355 5.69163C20.2602 3.81626 17.7166 2.7627 15.0645 2.7627ZM15.0645 24.8252C12.402 22.3252 7.56445 16.9377 7.56445 12.7627C7.56445 10.7736 8.35463 8.86592 9.76115 7.45939C11.1677 6.05287 13.0753 5.2627 15.0645 5.2627C17.0536 5.2627 18.9612 6.05287 20.3678 7.45939C21.7743 8.86592 22.5645 10.7736 22.5645 12.7627C22.5645 16.9377 17.727 22.3377 15.0645 24.8252ZM15.0645 7.7627C14.0755 7.7627 13.1088 8.05594 12.2866 8.60535C11.4644 9.15475 10.8235 9.93565 10.4451 10.8493C10.0666 11.7629 9.9676 12.7682 10.1605 13.7381C10.3535 14.7081 10.8297 15.599 11.5289 16.2982C12.2282 16.9975 13.1191 17.4737 14.089 17.6666C15.0589 17.8595 16.0642 17.7605 16.9779 17.3821C17.8915 17.0037 18.6724 16.3628 19.2218 15.5405C19.7712 14.7183 20.0645 13.7516 20.0645 12.7627C20.0645 11.4366 19.5377 10.1648 18.6 9.22716C17.6623 8.28948 16.3905 7.7627 15.0645 7.7627ZM15.0645 15.2627C14.57 15.2627 14.0867 15.1161 13.6755 14.8414C13.2644 14.5667 12.944 14.1762 12.7548 13.7194C12.5655 13.2626 12.516 12.7599 12.6125 12.275C12.709 11.79 12.9471 11.3446 13.2967 10.9949C13.6463 10.6453 14.0918 10.4072 14.5767 10.3107C15.0617 10.2143 15.5643 10.2638 16.0212 10.453C16.478 10.6422 16.8684 10.9626 17.1431 11.3738C17.4178 11.7849 17.5645 12.2682 17.5645 12.7627C17.5645 13.4257 17.3011 14.0616 16.8322 14.5305C16.3634 14.9993 15.7275 15.2627 15.0645 15.2627Z" fill="black" fill-opacity="0.85"/>
</svg>
