<svg width="40" height="41" viewBox="0 0 40 41" fill="none" xmlns="http://www.w3.org/2000/svg">
<path d="M20.0003 3.45508C10.3487 3.45508 2.49707 11.307 2.49707 20.9582C2.49707 30.6098 10.3487 38.462 20.0003 38.462C29.6513 38.462 37.5036 30.6098 37.5036 20.9582C37.5036 11.307 29.6513 3.45508 20.0003 3.45508ZM24.9472 14.5045C24.9472 14.5873 24.9143 14.6668 24.8557 14.7254C24.7971 14.784 24.7176 14.817 24.6347 14.817L22.645 14.8182C21.3322 14.8182 21.0922 15.3295 21.0922 16.3363V18.4251H24.5047C24.5944 18.4251 24.6801 18.4638 24.7391 18.5313C24.7982 18.5988 24.8257 18.6885 24.8147 18.7776L24.3288 22.5379C24.3191 22.6132 24.2823 22.6824 24.2252 22.7326C24.1681 22.7828 24.0948 22.8104 24.0188 22.8104H21.0922V32.1476C21.0922 32.2305 21.0593 32.3099 21.0007 32.3685C20.9421 32.4272 20.8626 32.4601 20.7797 32.4601H16.8972C16.8143 32.4601 16.7348 32.4272 16.6762 32.3685C16.6176 32.3099 16.5847 32.2305 16.5847 32.1476V22.8104H13.6487C13.5658 22.8104 13.4864 22.7775 13.4277 22.7189C13.3691 22.6603 13.3362 22.5808 13.3362 22.4979V18.7376C13.3362 18.6547 13.3691 18.5752 13.4277 18.5166C13.4864 18.458 13.5658 18.4251 13.6487 18.4251H16.5847V15.9641C16.5847 12.7048 18.5572 10.6804 21.7332 10.6804C23.0985 10.6804 24.3051 10.782 24.6757 10.831C24.7508 10.8409 24.8198 10.8778 24.8697 10.9348C24.9197 10.9918 24.9472 11.0649 24.9472 11.1407V14.5045Z" fill="#231F20"/>
</svg>
