<svg width="40" height="41" viewBox="0 0 40 41" fill="none" xmlns="http://www.w3.org/2000/svg">
<path d="M22.1398 18.6263H22.1678V18.5823L22.1398 18.6263ZM22.1398 18.6263H22.1678V18.5823L22.1398 18.6263ZM22.1398 18.6263H22.1678V18.5823L22.1398 18.6263ZM22.1398 18.6263H22.1678V18.5823L22.1398 18.6263ZM22.1398 18.6263H22.1678V18.5823L22.1398 18.6263ZM22.1398 18.6263H22.1678V18.5823L22.1398 18.6263ZM22.1398 18.6263H22.1678V18.5823L22.1398 18.6263ZM22.1398 18.6263H22.1678V18.5823L22.1398 18.6263ZM22.1398 18.6263H22.1678V18.5823L22.1398 18.6263ZM22.1398 18.6263H22.1678V18.5823L22.1398 18.6263ZM22.1398 18.6263H22.1678V18.5823L22.1398 18.6263ZM22.1398 18.6263H22.1678V18.5823L22.1398 18.6263ZM22.1398 18.6263H22.1678V18.5823L22.1398 18.6263ZM22.1398 18.6263H22.1678V18.5823L22.1398 18.6263ZM22.1398 18.6263H22.1678V18.5823L22.1398 18.6263ZM22.1398 18.6263H22.1678V18.5823L22.1398 18.6263ZM20.3198 2.46631C16.7067 2.46631 13.1748 3.53771 10.1706 5.54502C7.16645 7.55234 4.825 10.4054 3.44233 13.7434C2.05967 17.0815 1.69791 20.7546 2.40278 24.2982C3.10766 27.8419 4.84751 31.0969 7.40234 33.6517C9.95717 36.2066 13.2122 37.9464 16.7559 38.6513C20.2995 39.3562 23.9726 38.9944 27.3106 37.6117C30.6487 36.2291 33.5017 33.8876 35.5091 30.8835C37.5164 27.8793 38.5878 24.3474 38.5878 20.7343C38.5825 15.891 36.6561 11.2475 33.2313 7.82273C29.8066 4.39796 25.1631 2.4716 20.3198 2.46631ZM15.7518 28.9583C15.7507 29.0393 15.7178 29.1166 15.6602 29.1735C15.6025 29.2304 15.5248 29.2623 15.4438 29.2623H11.9238C11.8431 29.2623 11.7658 29.2303 11.7088 29.1733C11.6518 29.1163 11.6198 29.0389 11.6198 28.9583V17.1303C11.6192 17.0901 11.6267 17.0501 11.6417 17.0127C11.6568 16.9754 11.6791 16.9414 11.7074 16.9128C11.7357 16.8841 11.7694 16.8614 11.8065 16.8458C11.8436 16.8303 11.8835 16.8223 11.9238 16.8223H15.4438C15.4842 16.8223 15.5243 16.8303 15.5616 16.8458C15.599 16.8612 15.633 16.8839 15.6616 16.9125C15.6902 16.9411 15.7128 16.9751 15.7283 17.0124C15.7438 17.0498 15.7518 17.0899 15.7518 17.1303V28.9583ZM13.5598 15.2423C13.1223 15.2423 12.6946 15.1126 12.3308 14.8695C11.9671 14.6265 11.6836 14.281 11.5161 13.8768C11.3487 13.4726 11.3049 13.0279 11.3903 12.5988C11.4756 12.1697 11.6863 11.7755 11.9956 11.4662C12.305 11.1568 12.6991 10.9462 13.1282 10.8608C13.5573 10.7755 14.0021 10.8193 14.4063 10.9867C14.8105 11.1541 15.1559 11.4376 15.399 11.8014C15.642 12.1651 15.7718 12.5928 15.7718 13.0303C15.7723 13.3209 15.7154 13.6088 15.6045 13.8774C15.4935 14.146 15.3306 14.3901 15.1251 14.5956C14.9196 14.8011 14.6755 14.964 14.4069 15.075C14.1383 15.186 13.8504 15.2428 13.5598 15.2423ZM30.6478 28.9583C30.6467 29.0393 30.6138 29.1166 30.5562 29.1735C30.4985 29.2304 30.4208 29.2623 30.3398 29.2623H26.8198C26.7798 29.2623 26.7403 29.2544 26.7034 29.2392C26.6665 29.2239 26.633 29.2015 26.6048 29.1733C26.5766 29.145 26.5542 29.1115 26.5389 29.0746C26.5236 29.0378 26.5158 28.9982 26.5158 28.9583V22.6023C26.5158 20.9303 25.9198 19.8023 24.4238 19.8023C23.9576 19.8049 23.5037 19.9516 23.1241 20.2223C22.7446 20.493 22.458 20.8744 22.3038 21.3143C22.1983 21.6394 22.1522 21.9809 22.1678 22.3223V28.9583C22.1678 29.04 22.1353 29.1183 22.0776 29.1761C22.0198 29.2339 21.9415 29.2663 21.8598 29.2663H18.3398C18.2995 29.2663 18.2596 29.2583 18.2225 29.2428C18.1854 29.2273 18.1517 29.2045 18.1234 29.1759C18.0951 29.1472 18.0728 29.1132 18.0577 29.0759C18.0427 29.0385 18.0352 28.9986 18.0358 28.9583C18.0358 27.2703 18.0798 19.0743 18.0358 17.1463C18.0352 17.1061 18.0427 17.0661 18.0577 17.0287C18.0728 16.9914 18.0951 16.9574 18.1234 16.9288C18.1517 16.9001 18.1854 16.8774 18.2225 16.8618C18.2596 16.8463 18.2995 16.8383 18.3398 16.8383H21.8518C21.8924 16.8378 21.9327 16.8454 21.9703 16.8607C22.0079 16.8759 22.042 16.8986 22.0708 16.9273C22.0995 16.956 22.1221 16.9902 22.1374 17.0278C22.1527 17.0654 22.1603 17.1057 22.1598 17.1463V18.5983C22.5339 17.9488 23.0788 17.4142 23.7353 17.0524C24.3918 16.6907 25.1348 16.5157 25.8838 16.5463C28.5998 16.5463 30.6398 18.3223 30.6398 22.1463L30.6478 28.9583ZM22.1678 18.6383V18.5943L22.1398 18.6383H22.1678ZM22.1398 18.6383H22.1678V18.5943L22.1398 18.6383ZM22.1398 18.6383H22.1678V18.5943L22.1398 18.6383ZM22.1398 18.6383H22.1678V18.5943L22.1398 18.6383ZM22.1398 18.6383H22.1678V18.5943L22.1398 18.6383ZM22.1398 18.6383H22.1678V18.5943L22.1398 18.6383ZM22.1398 18.6383H22.1678V18.5943L22.1398 18.6383ZM22.1398 18.6383H22.1678V18.5943L22.1398 18.6383ZM22.1398 18.6383H22.1678V18.5943L22.1398 18.6383ZM22.1398 18.6383H22.1678V18.5943L22.1398 18.6383ZM22.1398 18.6383H22.1678V18.5943L22.1398 18.6383ZM22.1398 18.6383H22.1678V18.5943L22.1398 18.6383ZM22.1398 18.6383H22.1678V18.5943L22.1398 18.6383ZM22.1398 18.6383H22.1678V18.5943L22.1398 18.6383ZM22.1398 18.6383H22.1678V18.5943L22.1398 18.6383Z" fill="black"/>
</svg>
