<svg width="40" height="41" viewBox="0 0 40 41" fill="none" xmlns="http://www.w3.org/2000/svg">
<path d="M19.9999 3.45508C10.3489 3.45508 2.49707 11.307 2.49707 20.9582C2.49707 30.6098 10.3489 38.462 19.9999 38.462C29.6514 38.462 37.5033 30.6098 37.5033 20.9582C37.503 11.307 29.6511 3.45508 19.9999 3.45508ZM29.3155 16.3932C28.8514 17.0882 28.2743 17.7006 27.608 18.2051C27.6108 18.3066 27.6127 18.4082 27.6127 18.5098C27.6127 23.6141 23.7286 28.8938 17.2286 28.8938C15.2451 28.8948 13.303 28.326 11.6333 27.2551C11.5738 27.2171 11.5289 27.16 11.5061 27.0932C11.4833 27.0263 11.4839 26.9537 11.5077 26.8873C11.5309 26.8204 11.5763 26.7635 11.6364 26.7261C11.6964 26.6887 11.7675 26.673 11.8377 26.6816C12.1118 26.7132 12.3833 26.7288 12.6452 26.7288C13.9202 26.7288 15.1352 26.386 16.2018 25.731C15.5594 25.576 14.9678 25.2582 14.4839 24.8082C13.9999 24.3583 13.64 23.7913 13.4386 23.162C13.4221 23.1103 13.4194 23.0552 13.4305 23.0021C13.4417 22.9491 13.4665 22.8998 13.5024 22.8591C13.5383 22.8184 13.5843 22.7879 13.6357 22.7705C13.6872 22.7531 13.7423 22.7495 13.7955 22.7601C13.8543 22.7713 13.9133 22.781 13.9721 22.7891C12.8868 22.0976 12.1827 20.8816 12.1827 19.5354V19.4907C12.1827 19.4363 12.1969 19.3829 12.224 19.3357C12.251 19.2885 12.2898 19.2491 12.3367 19.2215C12.3836 19.194 12.4368 19.1791 12.4912 19.1784C12.5456 19.1777 12.5992 19.1912 12.6468 19.2176C12.7827 19.2929 12.9236 19.3582 13.0683 19.4132C12.513 18.7269 12.2105 17.8705 12.2114 16.9876C12.2114 16.307 12.3918 15.637 12.7327 15.0504C12.7581 15.0067 12.7937 14.9697 12.8364 14.9428C12.8792 14.9159 12.9279 14.8997 12.9783 14.8957C13.0287 14.8917 13.0793 14.9 13.1258 14.9199C13.1723 14.9397 13.2133 14.9706 13.2452 15.0098C14.9074 17.0479 17.3236 18.3301 19.9227 18.5663C19.9043 18.4115 19.8951 18.2557 19.8952 18.0998C19.8952 15.9757 21.6236 14.2476 23.748 14.2476C24.7502 14.2476 25.7199 14.6429 26.4352 15.3373C27.1343 15.1816 27.8042 14.9159 28.4199 14.5501C28.4352 14.5019 28.4621 14.4581 28.4981 14.4225C28.5341 14.387 28.5782 14.3607 28.6266 14.346C28.675 14.3312 28.7263 14.3285 28.776 14.3379C28.8257 14.3474 28.8724 14.3688 28.912 14.4002C28.9516 14.4317 28.983 14.4723 29.0035 14.5186C29.0239 14.5649 29.0328 14.6155 29.0294 14.666C29.026 14.7165 29.0104 14.7654 28.9839 14.8085C28.9574 14.8516 28.9209 14.8876 28.8774 14.9135C28.7243 15.3933 28.4779 15.8381 28.1524 16.2223C28.4172 16.1423 28.6768 16.0458 28.9296 15.9335C28.9915 15.9062 29.0606 15.8997 29.1265 15.915C29.1925 15.9303 29.2516 15.9666 29.2951 16.0184C29.3387 16.0703 29.3642 16.1348 29.3679 16.2024C29.3715 16.27 29.3532 16.337 29.3155 16.3932Z" fill="#231F20"/>
</svg>
